<?xml version="1.0" standalone="no"?>
<!DOCTYPE svg PUBLIC "-//W3C//DTD SVG 20010904//EN"
 "http://www.w3.org/TR/2001/REC-SVG-20010904/DTD/svg10.dtd">
<svg version="1.0" xmlns="http://www.w3.org/2000/svg"
 width="700.000000pt" height="700.000000pt" viewBox="0 0 700.000000 700.000000"
 preserveAspectRatio="xMidYMid meet">
<metadata>
Created by potrace 1.14, written by Peter Selinger 2001-2017
</metadata>
<g transform="translate(0.000000,700.000000) scale(0.100000,-0.100000)"
fill="#000000" stroke="none">
<path d="M5228 5735 c-3 -3 -66 -6 -428 -20 -260 -10 -404 -16 -475 -20 -44
-2 -150 -7 -235 -10 -85 -3 -189 -8 -230 -10 -41 -2 -149 -7 -240 -10 -91 -4
-203 -8 -250 -10 -47 -2 -157 -6 -245 -10 -88 -4 -192 -8 -231 -10 -38 -2
-151 -7 -250 -11 -98 -3 -199 -8 -224 -9 -25 -2 -89 -4 -143 -5 -65 -2 -102
-7 -111 -15 -7 -8 -17 -42 -21 -77 -10 -82 -12 -94 -25 -186 -6 -42 -13 -90
-15 -107 -2 -16 -9 -68 -15 -115 -7 -47 -13 -97 -15 -113 -2 -15 -9 -64 -15
-110 -6 -45 -13 -98 -16 -117 -2 -19 -6 -48 -9 -65 -3 -16 -7 -50 -10 -75 -7
-57 -15 -117 -20 -151 -3 -14 -7 -41 -9 -60 -2 -19 -14 -106 -26 -194 -12 -88
-23 -171 -25 -185 -3 -26 -23 -178 -30 -220 -2 -14 -7 -50 -10 -80 -3 -30 -8
-62 -10 -70 -4 -14 -9 -52 -20 -150 -3 -25 -7 -56 -10 -70 -2 -14 -7 -45 -10
-70 -4 -25 -8 -56 -10 -70 -2 -14 -7 -50 -10 -80 -7 -57 -12 -98 -20 -140 -2
-14 -7 -50 -10 -80 -4 -30 -8 -66 -10 -80 -5 -30 -33 -239 -40 -294 -3 -22 -7
-51 -9 -65 -3 -14 -8 -51 -11 -81 -4 -30 -9 -62 -10 -71 -2 -9 -6 -40 -10 -70
-3 -30 -8 -65 -10 -79 -3 -14 -7 -45 -10 -70 -6 -49 -14 -111 -20 -150 -2 -14
-16 -113 -30 -220 -15 -107 -28 -208 -30 -223 -2 -15 -7 -47 -10 -70 -5 -40
-12 -92 -20 -147 -2 -14 -7 -49 -10 -79 -4 -30 -8 -63 -11 -74 -2 -10 -6 -45
-9 -76 -4 -31 -8 -63 -10 -71 -2 -8 -7 -42 -11 -75 -3 -33 -7 -64 -8 -69 -1
-6 912 -13 965 -7 7 1 18 38 26 86 2 17 13 80 24 140 11 61 29 162 40 225 11
63 31 176 45 250 14 74 27 146 29 160 2 14 11 63 20 110 9 47 18 99 20 115 3
17 7 41 10 55 4 21 18 99 40 225 3 17 10 55 16 85 30 163 41 228 45 255 3 17
9 50 14 75 5 25 11 59 14 75 3 17 14 80 25 140 11 61 23 127 26 147 23 144 42
221 56 223 8 2 123 5 254 9 132 3 303 8 380 10 77 3 241 8 365 11 124 4 251 8
283 9 67 3 64 0 108 111 17 44 37 94 45 110 7 17 72 174 144 350 178 433 240
584 255 620 12 27 264 642 416 1015 33 80 64 152 69 161 7 13 4 18 -10 22 -10
3 -20 3 -22 2z"/>
<path d="M4769 3106 c-2 -2 -65 -7 -139 -11 -74 -3 -160 -8 -190 -10 -30 -2
-109 -6 -175 -10 -66 -3 -147 -8 -180 -10 -33 -2 -114 -7 -180 -10 -66 -3
-160 -8 -210 -11 -191 -11 -224 -13 -355 -20 -209 -10 -210 -11 -215 -16 -5
-5 -63 -283 -80 -378 -3 -19 -10 -53 -15 -75 -5 -22 -12 -56 -15 -75 -3 -19
-10 -53 -15 -75 -5 -22 -12 -56 -15 -75 -3 -19 -12 -64 -20 -100 -8 -36 -17
-76 -19 -90 -2 -14 -27 -141 -56 -283 -28 -141 -53 -265 -55 -275 -67 -342
-118 -593 -125 -614 -6 -19 -5 -30 3 -35 7 -4 98 -8 202 -9 105 -1 433 -5 730
-8 297 -3 819 -9 1160 -12 341 -4 672 -7 735 -8 115 -2 143 1 136 13 -2 3 -7
51 -11 106 -4 55 -9 120 -11 144 -2 24 -6 73 -9 110 -3 36 -7 89 -9 116 -3 28
-7 88 -11 135 -3 47 -8 103 -10 125 -4 44 -17 198 -19 230 -1 17 -8 20 -41 19
-34 0 -117 -8 -215 -19 -14 -2 -59 -6 -100 -10 -41 -4 -86 -8 -100 -10 -14 -1
-54 -6 -90 -9 -36 -4 -81 -9 -100 -11 -64 -8 -134 -15 -195 -21 -33 -3 -71 -7
-85 -9 -14 -2 -56 -7 -95 -10 -38 -4 -81 -8 -95 -10 -14 -2 -59 -7 -100 -11
-124 -11 -232 -22 -280 -29 -21 -3 -173 -17 -190 -17 -29 -1 -30 3 -45 137 -4
28 -8 57 -10 65 -3 8 -7 38 -10 66 -3 28 -7 59 -9 70 -2 11 -7 47 -11 79 -4
33 -9 67 -10 76 -3 14 49 15 498 15 276 -1 505 2 508 7 5 6 4 161 -4 701 -2
153 -3 159 -23 162 -12 2 -23 2 -25 0z"/>
</g>
</svg>
