<?xml version="1.0" encoding="UTF-8"?><svg id="a" xmlns="http://www.w3.org/2000/svg" xmlns:xlink="http://www.w3.org/1999/xlink" viewBox="0 0 504 144"><defs><style>.e{fill:url(#b);}.e,.f,.g{stroke:#202124;stroke-miterlimit:10;stroke-width:5.37829px;}.f{fill:url(#c);}.g{fill:url(#d);}.h{fill:#202124;}</style><linearGradient id="b" x1="-462.41864" y1="-1868.92055" x2="-421.07228" y2="-1804.76829" gradientTransform="translate(539 -1785.5) scale(1 -1)" gradientUnits="userSpaceOnUse"><stop offset="0" stop-color="#39a845"/><stop offset="1" stop-color="#7fd37f"/></linearGradient><linearGradient id="c" x1="-434.90959" y1="-1907.48294" x2="-389.91671" y2="-1867.69152" gradientTransform="translate(539 -1785.5) scale(1 -1)" gradientUnits="userSpaceOnUse"><stop offset="0" stop-color="#ffc300"/><stop offset="1" stop-color="#fee715"/></linearGradient><linearGradient id="d" x1="-442.63387" y1="-1834.76425" x2="-420.02919" y2="-1826.68767" gradientTransform="translate(539 -1785.5) scale(1 -1)" gradientUnits="userSpaceOnUse"><stop offset="0" stop-color="#ffd500"/><stop offset="1" stop-color="#fee715"/></linearGradient></defs><g><path class="e" d="M78.82599,23.78827c20.9735-.88114,41.94396-1.75923,62.91745-2.64036-6.53993,15.92145-13.07985,31.84289-19.62283,47.76434-10.2657,.30489-20.52836,.60978-30.79406,.91468-3.15563,17.5831-6.31431,35.16316-9.46994,52.74626h-16.43671c4.46666-32.9283,8.93638-65.85661,13.40609-98.78491Z"/><path class="f" d="M133.25221,93.60847h-22.98273c.79881,5.69233,1.60068,11.38161,2.3995,17.07393,12.65301-1.32628,25.30906-2.65256,37.96207-3.97579,.45734,5.59476,.91162,11.18953,1.36896,16.78124-20.02224-.20428-40.04143-.4055-60.06367-.60978,2.75012-13.77195,5.4972-27.54392,8.24732-41.31587l32.91306-1.8202,.15549,13.86647h0Z"/><polygon class="g" points="99.15007 38.88956 95.29014 51.83831 111.95857 53.07312 117.80029 36.98703 99.15007 38.88956"/></g><g><path class="h" d="M252.65039,104.22363c-.08008,.71973-.40039,.87988-.95996,.87988h-39.52051c-.64062,0-.80078-.32031-.80078-.87988V42.22168c0-.55957,.08008-.87988,.80078-.87988h38.32031c.7998,0,.95996,.08008,1.04004,.7998l1.2002,11.12109c.08008,.47949-.08008,.87988-.63965,.87988h-26.48145v12.08008h24.08105c.63965,0,.7998,.24023,.7998,.7998v11.28027c0,.64062-.32031,.71973-.7998,.71973h-24.08105v13.28027h27.9209c.7998,0,.87988,.24023,.7998,.80078l-1.67969,11.12012Z"/><path class="h" d="M313.01465,79.18262c0,18.00098-14.56055,26.88086-29.60059,26.88086-.24023,0-.87988,0-1.51953-.08008v16.00098c0,.47949-.08008,.7998-.7207,.87988-4.24023,.39941-11.91992,1.04004-12.71973,1.12012-.64062,0-.7998-.16016-.7998-.64062v-56.7207c0-1.36035-.08008-5.28027-.32031-6.64062,0-.16016,.16016-.47949,.39941-.55957,5.2002-1.68066,12.24121-3.9209,20.7207-3.9209,16.96094,0,24.56055,11.60059,24.56055,23.68066Zm-31.12012-11.04004v25.84082c.63965,.08008,2.08008,.16016,2.71973,.16016,6.24023,0,13.76074-3.60059,13.76074-13.9209,0-8.24023-4.08008-12.63965-11.20117-12.63965-2.08008,0-3.43945,.08008-5.2793,.55957Z"/><path class="h" d="M325.97461,44.0625c0-4.7207,3.44043-7.9209,8-7.9209,4.88086,0,7.9209,3.2002,7.9209,7.9209,0,4.7998-3.2002,7.91992-8.00098,7.91992-4.71973,0-7.91992-3.12012-7.91992-7.91992Zm.7207,13.2002c0-.56055,.31934-.87988,.87988-.87988h12.63965c.64062,0,.80078,.23926,.80078,.87988v46.96094c0,.55957-.16016,.87988-.88086,.87988h-12.39941c-.64062,0-1.04004-.32031-1.04004-.95996V57.2627Z"/><path class="h" d="M390.69434,103.74316c0,.48047-.08008,.64062-.47949,.87988-3.04004,1.12012-6.96094,1.44043-10.7207,1.44043-15.68066,0-25.60059-10.48047-25.60059-25.12012,0-14.7207,10.80078-25.44141,27.44043-25.44141,4.64062,0,7.2002,.40039,8.80078,.96094,.47949,.23926,.55957,.47949,.55957,1.19922l-.08008,10.56055c0,.63965-.39941,.71973-.7998,.63965-1.75977-.55957-4.40039-1.12012-7.91992-1.12012-7.84082,0-13.36035,4.16016-13.36035,12.64062,0,10.08008,7.28027,12.95996,13.67969,12.95996,3.28027,0,6.24023-.39941,7.68066-.71973,.55957-.24023,.7998,.08008,.7998,.48047v10.63965Z"/><path class="h" d="M422.97559,66.8623c-4.24023,0-5.59961,1.52051-5.59961,2.88086,0,1.59961,1.19922,2.55957,6.63965,4.7998,11.83984,4.40039,15.36035,9.12012,15.36035,15.91992,0,9.36035-7.2002,15.60059-20.16016,15.60059-6,0-11.2002-1.12012-14.24023-2.63965-.48047-.32031-.64062-.56055-.64062-1.2002v-11.12012c0-.56055,.40039-.87988,.87988-.56055,4.48047,2.7207,9.84082,3.91992,14.16113,3.91992,4.31934,0,6.16016-1.04004,6.16016-2.95996,0-1.51953-1.44043-2.7998-7.12012-4.95996-10.88086-4.16016-14.40039-8.87988-14.40039-15.91992,0-7.68066,6.16016-15.12109,19.2002-15.12109,5.59961,0,10.24023,.64062,12.63965,1.84082,.56055,.31934,.7207,.7998,.7207,1.35938v10.24023c0,.64062-.40039,1.04004-1.12012,.7207-3.2002-1.60059-8.08008-2.80078-12.48047-2.80078Z"/></g></svg>